<svg width="30" height="30" viewBox="0 0 30 30" fill="none" xmlns="http://www.w3.org/2000/svg">
<path d="M19.0779 9.78435C19.0779 14.9117 14.9193 19.0687 9.78895 19.0687C4.65858 19.0687 0.5 14.9117 0.5 9.78435C0.5 4.65697 4.65858 0.5 9.78895 0.5C14.9193 0.5 19.0779 4.65697 19.0779 9.78435Z" stroke="white"/>
<path d="M15.313 9.78435C15.313 12.8334 12.84 15.3055 9.78899 15.3055C6.73796 15.3055 4.26501 12.8334 4.26501 9.78435C4.26501 6.73533 6.73796 4.26321 9.78899 4.26321C12.84 4.26321 15.313 6.73533 15.313 9.78435Z" stroke="white"/>
<path d="M27.0494 27.0568L14.8912 19.9877L20.0018 14.8899L27.0494 27.0568Z" fill="white"/>
</svg>
